<svg version="1.1" id="Layer_1" xmlns="http://www.w3.org/2000/svg" xmlns:xlink="http://www.w3.org/1999/xlink" x="0px" y="0px"
	 width="100%" viewBox="0 0 610 409" enable-background="new 0 0 610 409" xml:space="preserve">
<path fill="#000000" opacity="1.000000" stroke="none" 
	d="
M320.000000,410.000000 
	C213.333359,410.000000 107.166718,410.000000 1.000057,410.000000 
	C1.000038,273.666718 1.000038,137.333450 1.000019,1.000130 
	C204.333237,1.000087 407.666473,1.000087 610.999756,1.000043 
	C610.999878,137.333191 610.999878,273.666382 610.999939,409.999786 
	C514.166687,410.000000 417.333344,410.000000 320.000000,410.000000 
M93.023872,121.027145 
	C82.025833,121.018654 71.027603,120.978157 60.030010,121.044037 
	C58.722939,121.051865 57.419346,121.640625 55.954605,122.736366 
	C55.963623,128.109848 55.972641,133.483322 55.205963,139.294907 
	C55.139065,139.787231 55.013752,140.279541 55.013599,140.771881 
	C55.002708,176.055313 54.992321,211.338760 55.041325,246.622116 
	C55.042953,247.796173 55.654247,248.969360 55.936649,251.053131 
	C55.601208,257.737061 55.106030,264.417908 54.978214,271.105804 
	C54.865227,277.017761 55.145485,282.937988 55.312206,288.852875 
	C55.323669,289.259552 55.836941,289.652069 56.418228,290.865692 
	C68.940033,290.851562 81.461838,290.837463 94.913742,290.962769 
	C119.648209,290.974579 144.382797,291.014893 169.116806,290.914215 
	C170.355820,290.909180 171.589844,289.682739 172.972336,288.094482 
	C172.978989,278.839050 173.049530,269.582642 172.904999,260.329590 
	C172.888412,259.268280 171.670670,258.225739 170.081543,257.027893 
	C155.393036,257.072906 140.704529,257.117920 125.088989,257.001770 
	C115.074059,257.000031 105.059120,256.998291 95.012505,256.060181 
	C95.019836,245.040604 95.027168,234.021011 95.966087,222.945786 
	C116.659248,222.901566 137.352417,222.857346 158.915253,222.959412 
	C159.276688,222.037933 159.944107,221.119110 159.952133,220.194565 
	C160.031082,211.105164 160.030212,202.014572 159.957703,192.925079 
	C159.949890,191.946365 159.345322,190.972443 158.677643,189.178940 
	C137.482620,189.178940 116.287590,189.178940 95.006920,189.178940 
	C95.006920,178.988068 95.050682,169.677750 94.962784,160.368652 
	C94.948540,158.860001 94.350052,157.356842 94.057770,155.502228 
	C94.057770,155.502228 94.031181,155.152466 94.953560,155.000107 
	C119.672401,155.002762 144.391357,155.033997 169.109695,154.923737 
	C170.348175,154.918228 171.581161,153.686646 172.971909,152.096649 
	C172.978378,143.353073 173.027435,134.609100 172.944702,125.866364 
	C172.932495,124.575615 172.296539,123.290779 171.626648,121.189560 
	C155.423706,121.183769 139.220764,121.177986 122.090637,121.009026 
	C112.708527,121.063049 103.326424,121.117081 93.023872,121.027145 
M333.304718,290.795532 
	C345.071869,290.862732 356.839203,290.965698 368.605804,290.912079 
	C369.345886,290.908722 370.080414,289.682312 370.975861,288.096313 
	C370.983368,234.490112 370.991425,180.883926 370.994568,127.277725 
	C370.994629,126.113960 370.937958,124.950188 370.907745,123.786430 
	C370.435272,123.834480 369.962830,123.882523 368.816925,123.923569 
	C365.580688,127.875107 362.222321,131.734024 359.138458,135.801086 
	C355.090149,141.139999 351.245209,146.633652 347.336792,152.077942 
	C343.280304,157.728439 339.345886,163.469238 335.185791,169.041946 
	C330.996094,174.654282 326.503998,180.040756 322.310638,185.650467 
	C317.862732,191.600677 313.595062,197.686127 309.277649,203.733185 
	C306.100098,208.183701 303.029541,212.711624 299.802368,217.125412 
	C295.693085,222.745651 291.473877,228.285507 287.107727,234.119705 
	C285.749969,232.862885 284.495026,232.011902 283.643707,230.862106 
	C278.639832,224.103729 273.744476,217.265152 268.785492,210.473389 
	C259.449585,197.687073 250.079498,184.925690 240.752518,172.132874 
	C228.797577,155.735519 216.871170,139.317337 204.623016,122.145279 
	C200.406601,121.431473 202.067825,124.701103 202.065414,126.313675 
	C201.986145,179.414078 201.991913,232.514618 202.041702,285.615112 
	C202.043106,287.108276 202.661499,288.600830 202.993195,290.007568 
	C202.993195,290.007568 202.907104,290.009369 203.302521,290.804810 
	C215.275543,290.869415 227.248550,290.950348 239.221573,290.951324 
	C239.830795,290.951385 240.440079,290.263458 241.174316,289.630951 
	C241.174316,289.630951 240.975464,289.415863 241.680115,288.832550 
	C241.785934,287.018372 241.977356,285.204529 241.984268,283.389954 
	C242.050705,265.920105 242.086090,248.450150 242.690765,231.345032 
	C256.877502,251.416626 271.490540,271.161713 286.898926,291.209717 
	C302.169250,270.428802 316.577423,250.821167 331.815979,231.442429 
	C331.874451,249.511810 331.910156,267.581329 332.033600,285.650299 
	C332.043701,287.130066 332.651672,288.605743 332.989716,290.004486 
	C332.989716,290.004486 332.910645,289.999542 333.304718,290.795532 
M431.201996,258.781982 
	C431.690430,258.862823 432.178833,259.014343 432.667267,259.014404 
	C466.804901,259.019012 500.942566,259.019531 535.080139,258.963318 
	C536.032471,258.961761 536.983704,258.342224 538.507690,257.790649 
	C545.402832,256.874146 549.807434,252.445526 551.829163,244.706177 
	C551.886719,219.432938 551.951660,194.159714 551.962219,168.886459 
	C551.962463,168.206528 551.374390,167.526337 550.934570,166.143341 
	C548.635315,159.429565 544.299683,155.045197 536.673279,153.198090 
	C501.459473,153.141800 466.245636,153.085526 430.338257,153.126022 
	C424.335022,156.438553 418.539124,159.908112 418.180267,168.419189 
	C418.115997,193.289215 418.044159,218.159256 418.029755,243.029312 
	C418.029388,243.669937 418.657990,244.310913 418.962158,245.722214 
	C420.653534,252.593704 425.027710,257.141937 431.201996,258.781982 
M541.996887,329.744934 
	C541.996887,333.218506 541.996887,336.692047 541.996887,340.524231 
	C543.508545,340.266235 544.793945,340.046875 544.843567,340.038422 
	C544.360046,335.070526 543.922729,330.577820 543.485474,326.085114 
	C543.113342,326.113647 542.741211,326.142181 542.369080,326.170746 
	C542.245178,327.055267 542.121216,327.939819 541.996887,329.744934 
M551.395935,328.115967 
	C551.307129,328.690063 551.218262,329.264191 551.129395,329.838257 
	C551.418457,329.448975 551.707520,329.059692 551.395935,328.115967 
z"/>
<path fill="#353849" opacity="1.000000" stroke="none" 
	d="
M330.985596,231.213531 
	C316.577423,250.821167 302.169250,270.428802 286.898926,291.209717 
	C271.490540,271.161713 256.877502,251.416626 241.941818,231.198792 
	C241.120392,250.506973 241.047928,269.961426 240.975464,289.415863 
	C240.975464,289.415863 241.174316,289.630951 240.652771,289.633087 
	C227.723175,289.759949 215.315140,289.884644 202.907104,290.009369 
	C202.907104,290.009369 202.993195,290.007568 203.112915,289.588989 
	C203.223816,235.236145 203.201157,181.301910 203.278519,127.367805 
	C203.280670,125.880463 204.357040,124.394661 204.932480,122.908142 
	C216.871170,139.317337 228.797577,155.735519 240.752518,172.132874 
	C250.079498,184.925690 259.449585,197.687073 268.785492,210.473389 
	C273.744476,217.265152 278.639832,224.103729 283.643707,230.862106 
	C284.495026,232.011902 285.749969,232.862885 287.107727,234.119705 
	C291.473877,228.285507 295.693085,222.745651 299.802368,217.125412 
	C303.029541,212.711624 306.100098,208.183701 309.277649,203.733185 
	C313.595062,197.686127 317.862732,191.600677 322.310638,185.650467 
	C326.503998,180.040756 330.996094,174.654282 335.185791,169.041946 
	C339.345886,163.469238 343.280304,157.728439 347.336792,152.077942 
	C351.245209,146.633652 355.090149,141.139999 359.138458,135.801086 
	C362.222321,131.734024 365.580688,127.875107 369.345367,124.365173 
	C369.898438,158.584854 369.906464,192.362976 369.953827,226.141006 
	C369.983215,247.103714 370.072266,268.066345 369.852203,289.358887 
	C357.350128,289.792389 345.130371,289.895966 332.910645,289.999542 
	C332.910645,289.999542 332.989716,290.004486 333.075134,289.576843 
	C333.160553,269.189850 333.160553,249.230515 333.160553,229.271179 
	C332.747040,229.184067 332.333527,229.096970 331.920013,229.009857 
	C331.608551,229.744415 331.297058,230.478973 330.985596,231.213531 
z"/>
<path fill="#A4A5A9" opacity="1.000000" stroke="none" 
	d="
M95.044189,256.996582 
	C105.059120,256.998291 115.074059,257.000031 125.552139,257.250977 
	C126.015289,257.500183 126.022514,257.837372 125.623245,257.911438 
	C124.145058,258.050476 123.066132,258.115387 121.540878,258.120117 
	C118.391792,258.095459 115.689034,258.131042 112.540092,258.105103 
	C109.392654,258.080505 106.691391,258.117432 103.534103,258.088501 
	C100.152901,258.022644 97.227722,258.022644 94.036980,258.022644 
	C94.036980,268.942444 94.036980,279.421967 94.063950,290.024445 
	C94.090927,290.147369 93.982170,290.374359 93.528946,290.247253 
	C80.756096,290.097198 68.436470,290.074188 56.116844,290.051178 
	C55.836941,289.652069 55.323669,289.259552 55.312206,288.852875 
	C55.145485,282.937988 54.865227,277.017761 54.978214,271.105804 
	C55.106030,264.417908 55.601208,257.737061 56.015007,250.122864 
	C56.056129,212.413986 56.018894,175.635391 55.981659,138.856796 
	C55.972641,133.483322 55.963623,128.109848 56.495010,122.374634 
	C69.260376,121.914818 81.485336,121.816742 93.798721,121.804871 
	C93.887138,121.891090 94.062386,122.065147 93.932358,122.514389 
	C93.872932,133.280304 93.943542,143.596970 94.010162,154.223465 
	C94.014511,154.739670 94.022842,154.946060 94.031181,155.152466 
	C94.031181,155.152466 94.057770,155.502228 93.981674,156.152069 
	C93.952080,167.972168 93.998573,179.142395 93.959045,190.754654 
	C93.873016,201.297867 93.873016,211.399063 93.873016,221.922836 
	C97.111221,221.922836 100.052773,221.922836 103.444031,221.993866 
	C106.926468,222.011459 109.959198,221.958008 113.445549,221.971863 
	C117.262535,221.986664 120.625893,221.934158 124.430138,221.945938 
	C127.244255,221.964554 129.617493,221.918884 132.456573,221.932861 
	C140.965561,221.939224 149.008698,221.885925 157.310364,221.900269 
	C157.736450,222.028397 157.904022,222.088882 158.072495,222.315613 
	C158.073410,222.481842 158.045578,222.813126 158.045578,222.813126 
	C137.352417,222.857346 116.659248,222.901566 95.130829,223.198654 
	C94.176735,234.137665 94.042961,244.823730 93.986664,255.510193 
	C93.984062,256.003784 94.675827,256.501038 95.044189,256.996582 
z"/>
<path fill="#454857" opacity="1.000000" stroke="none" 
	d="
M418.988831,168.108734 
	C418.539124,159.908112 424.335022,156.438553 430.870544,153.469086 
	C432.224091,153.876892 433.045380,153.998077 433.866669,153.998260 
	C468.259277,154.005783 502.651886,154.002457 537.044495,154.000504 
	C544.299683,155.045197 548.635315,159.429565 550.657959,166.682831 
	C550.523499,169.013611 550.787109,170.804733 550.789368,172.596191 
	C550.817627,194.800842 550.801270,217.005554 550.818970,239.210236 
	C550.820557,241.195038 550.979553,243.179688 551.065430,245.164413 
	C549.807434,252.445526 545.402832,256.874146 537.758301,257.859924 
	C501.592926,257.949554 466.176849,257.969940 430.760803,257.990295 
	C425.027710,257.141937 420.653534,252.593704 418.966736,244.871582 
	C418.977173,218.716873 418.983002,193.412811 418.988831,168.108734 
M547.250061,187.262726 
	C546.933044,187.167816 546.616028,186.989944 546.298950,186.989761 
	C505.833649,186.965561 465.368317,186.944138 424.903107,187.004196 
	C423.930939,187.005646 422.960114,187.923691 422.173309,188.547424 
	C422.173309,188.547424 422.076752,188.753647 421.550293,189.430099 
	C421.507629,206.706512 421.423920,223.983078 421.491150,241.259064 
	C421.497284,242.841217 422.469330,244.419617 423.224121,246.670532 
	C424.715210,250.347061 426.552216,253.655487 431.614441,254.734756 
	C432.434845,254.848770 433.255188,255.061996 434.075653,255.062561 
	C467.497528,255.085403 500.919464,255.099869 534.341248,255.051086 
	C535.538391,255.049347 536.734680,254.398712 538.622131,253.838608 
	C543.811096,252.571854 545.991699,248.743759 547.708740,243.445374 
	C547.708191,224.941879 547.707642,206.438385 547.250061,187.262726 
M547.602295,182.565811 
	C547.740540,180.090622 547.987610,177.615906 547.998291,175.140167 
	C548.044128,164.561630 545.298096,160.464584 535.336731,156.345749 
	C534.683777,156.255096 534.030823,156.085388 533.377808,156.085098 
	C501.194092,156.070877 469.010345,156.061890 436.826691,156.105103 
	C435.583801,156.106766 434.341644,156.625671 432.453156,157.217834 
	C428.374908,159.713104 422.882294,160.842194 422.088501,167.399139 
	C422.089600,172.345932 422.090698,177.292709 422.174194,182.453506 
	C422.174194,182.453506 421.986420,182.585144 421.996765,183.535690 
	C423.281433,183.734818 424.565948,184.106934 425.850769,184.107956 
	C464.888031,184.138931 503.925354,184.143707 542.962585,184.088974 
	C544.277405,184.087112 545.591309,183.427856 547.602295,182.565811 
z"/>
<path fill="#E6E6E8" opacity="1.000000" stroke="none" 
	d="
M204.777740,122.526703 
	C204.357040,124.394661 203.280670,125.880463 203.278519,127.367805 
	C203.201157,181.301910 203.223816,235.236145 203.112427,289.632019 
	C202.661499,288.600830 202.043106,287.108276 202.041702,285.615112 
	C201.991913,232.514618 201.986145,179.414078 202.065414,126.313675 
	C202.067825,124.701103 200.406601,121.431473 204.777740,122.526703 
z"/>
<path fill="#BDBFC4" opacity="1.000000" stroke="none" 
	d="
M370.134552,289.028992 
	C370.072266,268.066345 369.983215,247.103714 369.953827,226.141006 
	C369.906464,192.362976 369.898438,158.584854 369.682068,124.368668 
	C369.962830,123.882523 370.435272,123.834480 370.907745,123.786423 
	C370.937958,124.950188 370.994629,126.113960 370.994568,127.277725 
	C370.991425,180.883926 370.983368,234.490112 370.725952,288.566589 
	C370.476074,289.036865 370.134552,289.028992 370.134552,289.028992 
z"/>
<path fill="#FEFEFE" opacity="1.000000" stroke="none" 
	d="
M55.593811,139.075851 
	C56.018894,175.635391 56.056129,212.413986 56.037361,249.667770 
	C55.654247,248.969360 55.042953,247.796173 55.041325,246.622116 
	C54.992321,211.338760 55.002708,176.055313 55.013599,140.771881 
	C55.013752,140.279541 55.139065,139.787231 55.593811,139.075851 
z"/>
<path fill="#DBDCDF" opacity="1.000000" stroke="none" 
	d="
M430.981384,258.386139 
	C466.176849,257.969940 501.592926,257.949554 537.472229,257.970032 
	C536.983704,258.342224 536.032471,258.961761 535.080139,258.963318 
	C500.942566,259.019531 466.804901,259.019012 432.667267,259.014404 
	C432.178833,259.014343 431.690430,258.862823 430.981384,258.386139 
z"/>
<path fill="#B3B5BB" opacity="1.000000" stroke="none" 
	d="
M536.858887,153.599304 
	C502.651886,154.002457 468.259277,154.005783 433.866669,153.998260 
	C433.045380,153.998077 432.224091,153.876892 431.217316,153.420685 
	C466.245636,153.085526 501.459473,153.141800 536.858887,153.599304 
z"/>
<path fill="#F6F6F7" opacity="1.000000" stroke="none" 
	d="
M94.045074,190.312637 
	C93.998573,179.142395 93.952080,167.972168 93.963600,156.326538 
	C94.350052,157.356842 94.948540,158.860001 94.962784,160.368652 
	C95.050682,169.677750 95.006920,178.988068 95.006920,189.178940 
	C116.287590,189.178940 137.482620,189.178940 158.481903,189.539383 
	C157.803009,189.969528 157.319855,190.039230 156.382904,190.170166 
	C147.952530,190.328995 139.975937,190.426605 131.610245,190.419983 
	C128.804337,190.376770 126.387543,190.437744 123.595535,190.392868 
	C122.183029,190.312958 121.145737,190.338913 119.650116,190.231323 
	C113.753212,190.172516 108.314621,190.247269 102.437531,190.278534 
	C99.347710,190.260895 96.696388,190.286758 94.045074,190.312637 
z"/>
<path fill="#D8D9DC" opacity="1.000000" stroke="none" 
	d="
M94.492371,155.076294 
	C94.022842,154.946060 94.014511,154.739670 94.466805,154.249329 
	C98.280083,153.898865 101.632736,153.832382 105.439819,153.852631 
	C109.591377,153.873154 113.288521,153.806915 117.439743,153.827423 
	C121.589836,153.849091 125.285843,153.783997 129.444305,153.805298 
	C142.427292,153.893494 154.947983,153.925522 167.468140,153.858612 
	C169.017975,153.850342 170.565002,153.315491 172.289154,153.031448 
	C172.464996,153.038239 172.816711,153.025940 172.816711,153.025940 
	C171.581161,153.686646 170.348175,154.918228 169.109695,154.923737 
	C144.391357,155.033997 119.672401,155.002762 94.492371,155.076294 
z"/>
<path fill="#D8D9DC" opacity="1.000000" stroke="none" 
	d="
M172.826202,289.025024 
	C171.589844,289.682739 170.355820,290.909180 169.116806,290.914215 
	C144.382797,291.014893 119.648209,290.974579 94.433960,290.780853 
	C93.954185,290.598938 93.982170,290.374359 93.982170,290.374359 
	C93.982170,290.374359 94.090927,290.147369 94.512627,290.083252 
	C97.953514,289.952393 100.972702,289.885651 104.441864,289.889221 
	C107.923164,289.892578 110.954498,289.825653 114.429428,289.846863 
	C117.577469,289.868073 120.281929,289.801178 123.424133,289.821014 
	C126.235359,289.845306 128.608826,289.782806 131.444885,289.807373 
	C143.730713,289.899933 155.554153,289.938507 167.376984,289.871399 
	C168.948288,289.862488 170.516556,289.316803 172.271179,289.025970 
	C172.456131,289.032227 172.826202,289.025024 172.826202,289.025024 
z"/>
<path fill="#ECECED" opacity="1.000000" stroke="none" 
	d="
M551.447266,244.935303 
	C550.979553,243.179688 550.820557,241.195038 550.818970,239.210236 
	C550.801270,217.005554 550.817627,194.800842 550.789368,172.596191 
	C550.787109,170.804733 550.523499,169.013611 550.720947,167.034302 
	C551.374390,167.526337 551.962463,168.206528 551.962219,168.886459 
	C551.951660,194.159714 551.886719,219.432938 551.447266,244.935303 
z"/>
<path fill="#A4A5A9" opacity="1.000000" stroke="none" 
	d="
M418.584534,168.263962 
	C418.983002,193.412811 418.977173,218.716873 418.982300,244.486343 
	C418.657990,244.310913 418.029388,243.669937 418.029755,243.029312 
	C418.044159,218.159256 418.115997,193.289215 418.584534,168.263962 
z"/>
<path fill="#BDBFC4" opacity="1.000000" stroke="none" 
	d="
M331.400787,231.327972 
	C331.297058,230.478973 331.608551,229.744415 331.920013,229.009857 
	C332.333527,229.096970 332.747040,229.184067 333.160553,229.271179 
	C333.160553,249.230515 333.160553,269.189850 333.071198,289.616272 
	C332.651672,288.605743 332.043701,287.130066 332.033600,285.650299 
	C331.910156,267.581329 331.874451,249.511810 331.400787,231.327972 
z"/>
<path fill="#F6F6F7" opacity="1.000000" stroke="none" 
	d="
M241.327789,289.124207 
	C241.047928,269.961426 241.120392,250.506973 241.661621,231.016388 
	C242.086090,248.450150 242.050705,265.920105 241.984268,283.389954 
	C241.977356,285.204529 241.785934,287.018372 241.327789,289.124207 
z"/>
<path fill="#B3B5BB" opacity="1.000000" stroke="none" 
	d="
M123.017830,121.172195 
	C139.220764,121.177986 155.423706,121.183769 171.806671,121.573196 
	C171.986694,121.956841 172.045654,121.967773 171.574860,121.998001 
	C157.064545,122.065804 143.025009,122.103394 128.562897,122.078842 
	C126.434654,121.952507 124.728973,121.888321 123.021439,121.661148 
	C123.019585,121.498169 123.017830,121.172195 123.017830,121.172195 
z"/>
<path fill="#B3B5BB" opacity="1.000000" stroke="none" 
	d="
M126.022514,257.837402 
	C126.022514,257.837372 126.015289,257.500183 126.015656,257.331543 
	C140.704529,257.117920 155.393036,257.072906 170.547516,257.269226 
	C171.013504,257.510590 171.016037,257.846680 170.549057,257.901703 
	C157.050568,258.022736 144.019043,258.088715 130.577179,258.090881 
	C128.785370,257.963806 127.403946,257.900604 126.022514,257.837402 
z"/>
<path fill="#D8D9DC" opacity="1.000000" stroke="none" 
	d="
M369.852203,289.358887 
	C370.134552,289.028992 370.476074,289.036865 370.646790,289.030884 
	C370.080414,289.682312 369.345886,290.908722 368.605804,290.912079 
	C356.839203,290.965698 345.071869,290.862732 333.107666,290.397522 
	C345.130371,289.895966 357.350128,289.792389 369.852203,289.358887 
z"/>
<path fill="#DBDCDF" opacity="1.000000" stroke="none" 
	d="
M93.710297,121.718658 
	C81.485336,121.816742 69.260376,121.914818 56.574780,121.986496 
	C57.419346,121.640625 58.722939,121.051865 60.030010,121.044037 
	C71.027603,120.978157 82.025833,121.018654 93.442413,121.243210 
	C93.860947,121.459267 93.710297,121.718666 93.710297,121.718658 
z"/>
<path fill="#ECECED" opacity="1.000000" stroke="none" 
	d="
M93.528946,290.247253 
	C93.982170,290.374359 93.954185,290.598938 93.968918,290.711121 
	C81.461838,290.837463 68.940033,290.851562 56.267532,290.458435 
	C68.436470,290.074188 80.756096,290.097198 93.528946,290.247253 
z"/>
<path fill="#D8D9DC" opacity="1.000000" stroke="none" 
	d="
M203.104813,290.407104 
	C215.315140,289.884644 227.723175,289.759949 240.590271,289.765564 
	C240.440079,290.263458 239.830795,290.951385 239.221573,290.951324 
	C227.248550,290.950348 215.275543,290.869415 203.104813,290.407104 
z"/>
<path fill="#CECFD3" opacity="1.000000" stroke="none" 
	d="
M156.836716,190.108948 
	C157.319855,190.039230 157.803009,189.969528 158.651855,189.948059 
	C159.345322,190.972443 159.949890,191.946365 159.957703,192.925079 
	C160.030212,202.014572 160.031082,211.105164 159.952133,220.194565 
	C159.944107,221.119110 159.276688,222.037933 158.480408,222.886261 
	C158.045578,222.813126 158.073410,222.481842 158.041290,222.276794 
	C158.009186,222.071762 157.982056,221.975922 158.273270,221.969055 
	C158.664429,221.626068 158.764374,221.289948 158.878571,220.488373 
	C158.895432,213.628906 158.992783,207.232971 158.861618,200.841721 
	C158.793533,197.523819 158.321411,194.214203 157.802139,190.774017 
	C157.401093,190.682159 157.229706,190.717133 157.015152,190.587128 
	C156.971970,190.422119 156.836716,190.108948 156.836716,190.108948 
z"/>
<path fill="#F6F6F7" opacity="1.000000" stroke="none" 
	d="
M95.028351,256.528381 
	C94.675827,256.501038 93.984062,256.003784 93.986664,255.510193 
	C94.042961,244.823730 94.176735,234.137665 94.665039,223.226471 
	C95.027168,234.021011 95.019836,245.040604 95.028351,256.528381 
z"/>
<path fill="#BDBFC4" opacity="1.000000" stroke="none" 
	d="
M171.016022,257.846680 
	C171.016037,257.846680 171.013504,257.510590 171.011688,257.342529 
	C171.670670,258.225739 172.888412,259.268280 172.904999,260.329590 
	C173.049530,269.582642 172.978989,278.839050 172.899261,288.559753 
	C172.826202,289.025024 172.456131,289.032227 172.223602,288.558044 
	C171.981720,280.689789 172.053864,273.294250 171.920029,265.902435 
	C171.871323,263.212616 171.331680,260.531677 171.016022,257.846680 
z"/>
<path fill="#BDBFC4" opacity="1.000000" stroke="none" 
	d="
M172.894318,152.561295 
	C172.816711,153.025940 172.464996,153.038239 172.229202,152.564392 
	C172.010818,142.049622 172.028244,132.008698 172.045654,121.967773 
	C172.045654,121.967773 171.986694,121.956841 171.967926,121.980026 
	C172.296539,123.290779 172.932495,124.575615 172.944702,125.866364 
	C173.027435,134.609100 172.978378,143.353073 172.894318,152.561295 
z"/>
<path fill="#5C5E69" opacity="1.000000" stroke="none" 
	d="
M541.997070,329.284637 
	C542.121216,327.939819 542.245178,327.055267 542.369080,326.170746 
	C542.741211,326.142181 543.113342,326.113647 543.485474,326.085114 
	C543.922729,330.577820 544.360046,335.070526 544.843567,340.038422 
	C544.793945,340.046875 543.508545,340.266235 541.996887,340.524231 
	C541.996887,336.692047 541.996887,333.218506 541.997070,329.284637 
z"/>
<path fill="#A4A5A9" opacity="1.000000" stroke="none" 
	d="
M93.798721,121.804878 
	C93.710297,121.718666 93.860947,121.459267 93.902634,121.315186 
	C103.326424,121.117081 112.708527,121.063049 122.554230,121.090607 
	C123.017830,121.172195 123.019585,121.498169 122.594780,121.736420 
	C120.441414,122.040199 118.712852,122.105728 116.530235,122.111298 
	C112.712440,122.086418 109.348701,122.121498 105.529938,122.093002 
	C101.404068,122.041344 97.733231,122.053246 94.062386,122.065147 
	C94.062386,122.065147 93.887138,121.891090 93.798721,121.804878 
z"/>
<path fill="#DBDCDF" opacity="1.000000" stroke="none" 
	d="
M551.696228,328.393188 
	C551.707520,329.059692 551.418457,329.448975 551.129395,329.838257 
	C551.218262,329.264191 551.307129,328.690063 551.696228,328.393188 
z"/>
<path fill="#343748" opacity="1.000000" stroke="none" 
	d="
M158.031815,190.900818 
	C158.321411,194.214203 158.793533,197.523819 158.861618,200.841721 
	C158.992783,207.232971 158.895432,213.628906 158.667694,220.509995 
	C158.442566,220.997101 158.015274,221.002838 157.813873,221.089401 
	C157.350677,221.330917 157.163803,221.549805 157.051834,221.832642 
	C149.008698,221.885925 140.965561,221.939224 132.460999,221.473236 
	C131.999496,210.810699 131.999435,200.667450 131.999359,190.524200 
	C139.975937,190.426605 147.952530,190.328995 156.382904,190.170166 
	C156.836716,190.108948 156.971970,190.422119 157.078339,190.776703 
	C157.467072,191.054459 157.749451,190.977646 158.031815,190.900818 
z"/>
<path fill="#181A22" opacity="1.000000" stroke="none" 
	d="
M93.932358,122.514389 
	C97.733231,122.053246 101.404068,122.041344 105.483223,122.455338 
	C105.384758,124.767151 104.439674,126.654694 104.446640,128.538727 
	C104.477737,136.948334 104.780663,145.356918 104.985390,153.765884 
	C101.632736,153.832382 98.280083,153.898865 94.470787,153.939514 
	C93.943542,143.596970 93.872932,133.280304 93.932358,122.514389 
z"/>
<path fill="#262936" opacity="1.000000" stroke="none" 
	d="
M120.108437,190.364868 
	C121.145737,190.338913 122.183029,190.312958 123.603210,190.828949 
	C123.987152,201.541138 123.988205,211.711395 123.989258,221.881638 
	C120.625893,221.934158 117.262535,221.986664 113.449844,221.509857 
	C113.012199,211.303940 113.023895,201.627350 113.448227,191.976852 
	C115.943390,191.456924 118.025917,190.910904 120.108437,190.364868 
z"/>
<path fill="#1F212B" opacity="1.000000" stroke="none" 
	d="
M113.985832,289.758728 
	C110.954498,289.825653 107.923164,289.892578 104.440796,289.472290 
	C103.989891,278.708130 103.990013,268.431244 103.990135,258.154358 
	C106.691391,258.117432 109.392654,258.080505 112.544769,258.562256 
	C113.325699,269.306885 113.655769,279.532806 113.985832,289.758728 
z"/>
<path fill="#1F212B" opacity="1.000000" stroke="none" 
	d="
M113.035591,191.950745 
	C113.023895,201.627350 113.012199,211.303940 112.996216,221.442551 
	C109.959198,221.958008 106.926468,222.011459 103.447571,221.530548 
	C102.992249,211.025543 102.983093,201.054932 103.427048,191.041748 
	C106.607704,191.052307 109.335266,191.105438 112.169403,191.345520 
	C112.470741,191.754929 112.708916,191.911255 112.997475,191.985321 
	C113.004433,191.969177 113.035591,191.950745 113.035591,191.950745 
z"/>
<path fill="#181A22" opacity="1.000000" stroke="none" 
	d="
M103.534103,258.088501 
	C103.990013,268.431244 103.989891,278.708130 103.990829,289.401978 
	C100.972702,289.885651 97.953514,289.952393 94.485657,289.960327 
	C94.036980,279.421967 94.036980,268.942444 94.036980,258.022644 
	C97.227722,258.022644 100.152901,258.022644 103.534103,258.088501 
z"/>
<path fill="#181A22" opacity="1.000000" stroke="none" 
	d="
M102.973938,191.084305 
	C102.983093,201.054932 102.992249,211.025543 102.997871,221.459503 
	C100.052773,221.922836 97.111221,221.922836 93.873016,221.922836 
	C93.873016,211.399063 93.873016,201.297867 93.959045,190.754654 
	C96.696388,190.286758 99.347710,190.260895 102.415726,190.475037 
	C102.832436,190.715042 102.973938,191.084305 102.973938,191.084305 
z"/>
<path fill="#262936" opacity="1.000000" stroke="none" 
	d="
M114.429428,289.846863 
	C113.655769,279.532806 113.325699,269.306885 112.990952,258.623779 
	C115.689034,258.131042 118.391792,258.095459 121.545258,258.576172 
	C122.326096,269.306396 122.656235,279.520325 122.986382,289.734253 
	C120.281929,289.801178 117.577469,289.868073 114.429428,289.846863 
z"/>
<path fill="#2C2F3E" opacity="1.000000" stroke="none" 
	d="
M123.424133,289.821014 
	C122.656235,279.520325 122.326096,269.306396 121.991577,258.636383 
	C123.066132,258.115387 124.145058,258.050476 125.623245,257.911469 
	C127.403946,257.900604 128.785370,257.963806 130.581299,258.548767 
	C130.991287,269.287140 130.986801,279.503754 130.982300,289.720337 
	C128.608826,289.782806 126.235359,289.845306 123.424133,289.821014 
z"/>
<path fill="#2E3040" opacity="1.000000" stroke="none" 
	d="
M124.430138,221.945938 
	C123.988205,211.711395 123.987152,201.541138 123.978424,190.934814 
	C126.387543,190.437744 128.804337,190.376770 131.610245,190.419998 
	C131.999435,200.667450 131.999496,210.810699 131.995148,221.413574 
	C129.617493,221.918884 127.244255,221.964554 124.430138,221.945938 
z"/>
<path fill="#262936" opacity="1.000000" stroke="none" 
	d="
M157.310364,221.900269 
	C157.163803,221.549805 157.350677,221.330917 157.817535,221.333038 
	C158.022614,221.490097 157.982056,221.975922 157.982056,221.975922 
	C157.982056,221.975922 158.009186,222.071762 158.040375,222.110565 
	C157.904022,222.088882 157.736450,222.028397 157.310364,221.900269 
z"/>
<path fill="#000000" opacity="1.000000" stroke="none" 
	d="
M422.076752,188.753647 
	C422.076752,188.753647 422.173309,188.547424 422.523315,188.311554 
	C464.207550,188.070724 505.541779,188.065765 546.925171,188.523254 
	C546.996216,207.307678 547.018066,225.629623 547.039917,243.951584 
	C545.991699,248.743759 543.811096,252.571854 537.812378,253.936188 
	C501.702972,254.047562 466.403412,254.061371 431.103821,254.075180 
	C426.552216,253.655487 424.715210,250.347061 423.101349,245.866028 
	C422.987579,227.655548 423.017365,210.249512 422.965332,192.843719 
	C422.961273,191.479477 422.386353,190.116959 422.076752,188.753647 
M482.718018,235.824844 
	C484.031403,230.466003 485.324158,225.102020 486.663330,219.749634 
	C488.396057,212.824280 490.263947,205.930084 491.817841,198.965408 
	C492.061066,197.875351 490.949249,196.483002 490.464020,195.230423 
	C489.615448,196.228500 488.322723,197.099274 487.993988,198.246307 
	C486.433319,203.692123 485.142548,209.215042 483.742218,214.707077 
	C481.207336,224.648560 478.600159,234.572510 476.200256,244.546387 
	C475.893738,245.820343 476.646881,247.349258 476.909088,248.760040 
	C477.489471,248.810150 478.069824,248.860245 478.650208,248.910355 
	C479.842224,244.755356 481.034241,240.600357 482.718018,235.824844 
M454.781006,222.888107 
	C455.307098,221.728729 455.543427,220.252365 456.407379,219.462646 
	C461.169525,215.109909 466.084900,210.924850 470.947723,206.682297 
	C470.351593,205.784882 469.755463,204.887466 469.159363,203.990051 
	C467.326111,204.551346 465.225403,204.727631 463.725952,205.769363 
	C461.756958,207.137299 460.341583,209.274002 458.545776,210.925308 
	C454.962341,214.220337 451.281921,217.409897 447.272583,220.970749 
	C453.659698,226.960724 459.562805,232.642624 465.692932,238.068039 
	C466.492737,238.775909 468.459595,238.165146 471.244843,238.165146 
	C465.108093,232.363556 460.259521,227.779785 454.781006,222.888107 
M514.887268,220.323685 
	C513.910767,221.878952 513.202820,223.719772 511.908661,224.937347 
	C507.562195,229.026474 503.006714,232.893417 498.141266,237.189697 
	C502.893372,239.389862 508.781372,234.936111 520.867065,221.356781 
	C514.634949,215.005920 508.800781,208.190063 500.339905,204.498077 
	C503.691711,210.937469 508.611847,215.796173 514.887268,220.323685 
z"/>
<path fill="#000000" opacity="1.000000" stroke="none" 
	d="
M422.807129,167.204147 
	C422.882294,160.842194 428.374908,159.713104 433.236572,157.094925 
	C467.986145,156.954819 501.952332,156.937622 535.918518,156.920425 
	C545.298096,160.464584 548.044128,164.561630 547.998291,175.140167 
	C547.987610,177.615906 547.740540,180.090622 546.793213,182.775360 
	C506.455444,182.982315 466.926758,182.984879 427.398071,182.960556 
	C425.594116,182.959442 423.790314,182.715820 421.986420,182.585144 
	C421.986420,182.585144 422.174194,182.453506 422.440247,182.036438 
	C422.739929,176.814285 422.773529,172.009216 422.807129,167.204147 
M431.936890,164.965714 
	C431.936890,164.965714 431.950134,164.881866 431.207886,164.949036 
	C430.825378,165.958481 430.442871,166.967926 430.040344,168.814362 
	C430.364594,171.209793 430.688843,173.605209 431.042572,176.580750 
	C431.791382,176.895203 432.540161,177.209656 433.736359,177.564468 
	C434.315735,177.754410 434.895081,177.944366 435.850098,178.717148 
	C436.945709,178.886444 438.041321,179.055756 439.742523,179.010803 
	C440.167084,178.954666 440.591675,178.898544 441.626862,178.763931 
	C442.447052,178.213562 443.267273,177.663177 444.061035,177.003601 
	C444.061035,177.003601 444.113556,177.103607 444.671051,176.888870 
	C445.095764,176.261047 445.520477,175.633209 446.197662,174.434357 
	C446.575073,173.911163 446.952484,173.387985 447.723663,172.318924 
	C448.407837,177.660187 452.380981,180.297180 456.261658,179.603989 
	C460.003052,178.935654 463.226044,175.365158 466.763611,173.011902 
	C466.717987,172.972000 467.319794,173.498474 467.967987,174.718445 
	C468.731415,175.667114 469.494843,176.615784 470.706482,177.626770 
	C471.294708,177.795807 471.882935,177.964844 472.846039,178.717972 
	C473.942596,178.886337 475.039185,179.054703 476.742523,179.004486 
	C477.167938,178.942108 477.593323,178.879745 478.626129,178.742081 
	C479.448944,178.190948 480.271759,177.639816 480.989624,177.027054 
	C480.989624,177.027054 481.086365,177.103790 481.622314,176.870804 
	C482.028351,176.252335 482.434418,175.633865 483.152863,174.388382 
	C483.523041,173.310165 483.893219,172.231934 484.785736,170.796722 
	C484.521729,169.865112 484.257751,168.933502 483.749512,167.338333 
	C480.640472,161.767639 475.822449,160.562668 469.335754,163.888626 
	C468.782959,164.635544 468.230133,165.382446 467.530762,166.745193 
	C467.036835,167.464828 466.542877,168.184464 465.950287,169.047821 
	C460.572418,160.059921 453.668945,159.621033 447.977478,167.503098 
	C447.880127,167.637909 446.883453,167.123337 446.180115,166.250656 
	C445.445923,165.521866 444.711731,164.793060 443.323761,163.698914 
	C440.232544,163.417130 437.141296,163.135361 433.350159,162.908707 
	C432.858521,163.574936 432.366882,164.241165 431.936890,164.965714 
z"/>
<path fill="#CECFD3" opacity="1.000000" stroke="none" 
	d="
M546.875977,188.060806 
	C505.541779,188.065765 464.207550,188.070724 422.431000,188.244949 
	C422.960114,187.923691 423.930939,187.005646 424.903107,187.004196 
	C465.368317,186.944138 505.833649,186.965561 546.298950,186.989761 
	C546.616028,186.989944 546.933044,187.167816 547.267090,187.605499 
	C547.284119,187.948273 546.875977,188.060806 546.875977,188.060806 
z"/>
<path fill="#CECFD3" opacity="1.000000" stroke="none" 
	d="
M421.991577,183.060425 
	C423.790314,182.715820 425.594116,182.959442 427.398071,182.960556 
	C466.926758,182.984879 506.455444,182.982315 546.444885,183.029953 
	C545.591309,183.427856 544.277405,184.087112 542.962585,184.088974 
	C503.925354,184.143707 464.888031,184.138931 425.850769,184.107956 
	C424.565948,184.106934 423.281433,183.734818 421.991577,183.060425 
z"/>
<path fill="#F6F6F7" opacity="1.000000" stroke="none" 
	d="
M421.813538,189.091873 
	C422.386353,190.116959 422.961273,191.479477 422.965332,192.843719 
	C423.017365,210.249512 422.987579,227.655548 422.985718,245.530640 
	C422.469330,244.419617 421.497284,242.841217 421.491150,241.259064 
	C421.423920,223.983078 421.507629,206.706512 421.813538,189.091873 
z"/>
<path fill="#E6E6E8" opacity="1.000000" stroke="none" 
	d="
M431.359131,254.404968 
	C466.403412,254.061371 501.702972,254.047562 537.466919,254.042114 
	C536.734680,254.398712 535.538391,255.049347 534.341248,255.051086 
	C500.919464,255.099869 467.497528,255.085403 434.075653,255.062561 
	C433.255188,255.061996 432.434845,254.848770 431.359131,254.404968 
z"/>
<path fill="#878992" opacity="1.000000" stroke="none" 
	d="
M535.627625,156.633087 
	C501.952332,156.937622 467.986145,156.954819 433.559570,156.937775 
	C434.341644,156.625671 435.583801,156.106766 436.826691,156.105103 
	C469.010345,156.061890 501.194092,156.070877 533.377808,156.085098 
	C534.030823,156.085388 534.683777,156.255096 535.627625,156.633087 
z"/>
<path fill="#B3B5BB" opacity="1.000000" stroke="none" 
	d="
M546.925171,188.523254 
	C546.875977,188.060806 547.284119,187.948273 547.495605,187.941589 
	C547.707642,206.438385 547.708191,224.941879 547.374390,243.698486 
	C547.018066,225.629623 546.996216,207.307678 546.925171,188.523254 
z"/>
<path fill="#CECFD3" opacity="1.000000" stroke="none" 
	d="
M422.447815,167.301636 
	C422.773529,172.009216 422.739929,176.814285 422.399048,181.929428 
	C422.090698,177.292709 422.089600,172.345932 422.447815,167.301636 
z"/>
<path fill="#5C5E69" opacity="1.000000" stroke="none" 
	d="
M103.427048,191.041748 
	C102.973938,191.084305 102.832436,190.715042 102.854233,190.518539 
	C108.314621,190.247269 113.753212,190.172516 119.650116,190.231323 
	C118.025917,190.910904 115.943390,191.456924 113.448227,191.976852 
	C113.035591,191.950745 113.004433,191.969177 112.914322,191.773621 
	C112.653374,191.287613 112.399574,191.147797 112.062820,191.158569 
	C109.335266,191.105438 106.607704,191.052307 103.427048,191.041748 
z"/>
<path fill="#343747" opacity="1.000000" stroke="none" 
	d="
M171.574860,121.998001 
	C172.028244,132.008698 172.010818,142.049622 172.053375,152.557602 
	C170.565002,153.315491 169.017975,153.850342 167.468140,153.858612 
	C154.947983,153.925522 142.427292,153.893494 129.446640,153.355164 
	C128.986176,142.592758 128.985825,132.366867 128.985474,122.140976 
	C143.025009,122.103394 157.064545,122.065804 171.574860,121.998001 
z"/>
<path fill="#292C3A" opacity="1.000000" stroke="none" 
	d="
M128.562897,122.078842 
	C128.985825,132.366867 128.986176,142.592758 128.984192,153.268784 
	C125.285843,153.783997 121.589836,153.849091 117.424866,153.421753 
	C116.965363,142.676651 116.974831,132.423950 116.984299,122.171249 
	C118.712852,122.105728 120.441414,122.040199 122.596634,121.899399 
	C124.728973,121.888321 126.434654,121.952507 128.562897,122.078842 
z"/>
<path fill="#20222D" opacity="1.000000" stroke="none" 
	d="
M116.530243,122.111298 
	C116.974831,132.423950 116.965363,142.676651 116.970779,153.335022 
	C113.288521,153.806915 109.591377,153.873154 105.439819,153.852631 
	C104.780663,145.356918 104.477737,136.948334 104.446640,128.538727 
	C104.439674,126.654694 105.384758,124.767151 105.938248,122.518906 
	C109.348701,122.121498 112.712440,122.086418 116.530243,122.111298 
z"/>
<path fill="#343748" opacity="1.000000" stroke="none" 
	d="
M131.444885,289.807373 
	C130.986801,279.503754 130.991287,269.287140 130.991669,258.612640 
	C144.019043,258.088715 157.050568,258.022736 170.549042,257.901703 
	C171.331680,260.531677 171.871323,263.212616 171.920029,265.902435 
	C172.053864,273.294250 171.981720,280.689789 172.038651,288.551758 
	C170.516556,289.316803 168.948288,289.862488 167.376984,289.871399 
	C155.554153,289.938507 143.730713,289.899933 131.444885,289.807373 
z"/>
<path fill="#5C5E69" opacity="1.000000" stroke="none" 
	d="
M158.273270,221.969055 
	C157.982056,221.975922 158.022614,221.490097 158.018951,221.246460 
	C158.015274,221.002838 158.442566,220.997101 158.653442,220.975464 
	C158.764374,221.289948 158.664429,221.626068 158.273270,221.969055 
z"/>
<path fill="#262936" opacity="1.000000" stroke="none" 
	d="
M157.802139,190.774002 
	C157.749451,190.977646 157.467072,191.054459 157.121521,190.941696 
	C157.229706,190.717133 157.401093,190.682159 157.802139,190.774002 
z"/>
<path fill="#181A22" opacity="1.000000" stroke="none" 
	d="
M112.169403,191.345520 
	C112.399574,191.147797 112.653374,191.287613 112.907364,191.789764 
	C112.708916,191.911255 112.470741,191.754929 112.169403,191.345520 
z"/>
<path fill="#494C5B" opacity="1.000000" stroke="none" 
	d="
M482.472168,236.135101 
	C481.034241,240.600357 479.842224,244.755356 478.650208,248.910355 
	C478.069824,248.860245 477.489471,248.810150 476.909088,248.760040 
	C476.646881,247.349258 475.893738,245.820343 476.200256,244.546387 
	C478.600159,234.572510 481.207336,224.648560 483.742218,214.707077 
	C485.142548,209.215042 486.433319,203.692123 487.993988,198.246307 
	C488.322723,197.099274 489.615448,196.228500 490.464020,195.230423 
	C490.949249,196.483002 492.061066,197.875351 491.817841,198.965408 
	C490.263947,205.930084 488.396057,212.824280 486.663330,219.749634 
	C485.324158,225.102020 484.031403,230.466003 482.472168,236.135101 
z"/>
<path fill="#4F5160" opacity="1.000000" stroke="none" 
	d="
M455.095978,223.042068 
	C460.259521,227.779785 465.108093,232.363556 471.244843,238.165146 
	C468.459595,238.165146 466.492737,238.775909 465.692932,238.068039 
	C459.562805,232.642624 453.659698,226.960724 447.272583,220.970749 
	C451.281921,217.409897 454.962341,214.220337 458.545776,210.925308 
	C460.341583,209.274002 461.756958,207.137299 463.725952,205.769363 
	C465.225403,204.727631 467.326111,204.551346 469.159363,203.990051 
	C469.755463,204.887466 470.351593,205.784882 470.947723,206.682297 
	C466.084900,210.924850 461.169525,215.109909 456.407379,219.462646 
	C455.543427,220.252365 455.307098,221.728729 455.095978,223.042068 
z"/>
<path fill="#4F5160" opacity="1.000000" stroke="none" 
	d="
M514.642822,220.081955 
	C508.611847,215.796173 503.691711,210.937469 500.339905,204.498077 
	C508.800781,208.190063 514.634949,215.005920 520.867065,221.356781 
	C508.781372,234.936111 502.893372,239.389862 498.141266,237.189697 
	C503.006714,232.893417 507.562195,229.026474 511.908661,224.937347 
	C513.202820,223.719772 513.910767,221.878952 514.642822,220.081955 
z"/>
<path fill="#454857" opacity="1.000000" stroke="none" 
	d="
M467.921600,174.024948 
	C467.319794,173.498474 466.717987,172.972000 466.763611,173.011902 
	C463.226044,175.365158 460.003052,178.935654 456.261658,179.603989 
	C452.380981,180.297180 448.407837,177.660187 447.723663,172.318924 
	C446.952484,173.387985 446.575073,173.911163 445.750793,174.765991 
	C444.907135,175.766296 444.510345,176.434952 444.113556,177.103607 
	C444.113556,177.103607 444.061035,177.003601 443.725250,177.024780 
	C442.598389,177.644760 441.807312,178.243576 441.016235,178.842407 
	C440.591675,178.898544 440.167084,178.954666 439.189697,178.799393 
	C437.582733,178.436752 436.528595,178.285522 435.474457,178.134308 
	C434.895081,177.944366 434.315735,177.754410 433.336365,177.216843 
	C432.295288,176.579697 431.654205,176.290161 431.013092,176.000641 
	C430.688843,173.605209 430.364594,171.209793 430.297546,168.217590 
	C431.019867,166.707825 431.484985,165.794846 431.950134,164.881866 
	C431.950134,164.881866 431.936890,164.965714 432.181702,164.963440 
	C432.610504,164.964294 432.794525,164.967422 432.993317,164.987579 
	C433.008118,165.004608 433.039093,165.037460 433.058502,165.342560 
	C433.424713,166.119278 433.771515,166.590897 434.047607,167.296570 
	C433.976868,167.530640 433.890686,168.012024 433.559570,168.074814 
	C433.156677,169.427063 433.084930,170.716507 433.191162,172.322784 
	C435.485046,175.618622 438.361847,175.903931 441.136993,174.119705 
	C443.085999,172.866608 445.414001,171.046036 443.012726,167.810852 
	C444.142029,167.294891 445.224243,167.103333 446.306458,166.911789 
	C446.883453,167.123337 447.880127,167.637909 447.977478,167.503098 
	C453.668945,159.621033 460.572418,160.059921 465.950287,169.047821 
	C466.542877,168.184464 467.036835,167.464828 467.982422,166.400513 
	C468.936523,166.017899 469.438934,165.979980 469.973145,165.969498 
	C470.004974,165.996948 470.069977,166.050217 470.174805,166.267120 
	C470.487305,166.745178 470.749725,166.927689 471.009399,167.276154 
	C470.921173,167.685425 470.890472,167.850098 470.500305,168.103378 
	C469.779144,170.109268 469.417480,172.026535 469.030212,173.969818 
	C469.004639,173.995834 468.953918,174.048233 468.695984,174.036499 
	C468.265869,174.024811 468.093750,174.024872 467.921600,174.024948 
M459.436737,174.015854 
	C460.798187,172.380478 463.889313,170.737457 460.737457,168.573090 
	C458.729340,167.194092 455.818848,167.129181 453.312958,166.475037 
	C453.101654,168.929489 452.129822,171.643677 452.858490,173.777084 
	C453.932770,176.922455 456.604889,176.214996 459.436737,174.015854 
z"/>
<path fill="#454857" opacity="1.000000" stroke="none" 
	d="
M484.263428,171.153717 
	C483.893219,172.231934 483.523041,173.310165 482.688660,174.754700 
	C481.845062,175.781937 481.465729,176.442871 481.086365,177.103790 
	C481.086365,177.103790 480.989624,177.027054 480.693604,177.033264 
	C479.604614,177.632126 478.811676,178.224762 478.018738,178.817383 
	C477.593323,178.879745 477.167938,178.942108 476.188599,178.795441 
	C474.580200,178.435562 473.525665,178.284714 472.471161,178.133881 
	C471.882935,177.964844 471.294708,177.795807 470.352112,177.232849 
	C469.649780,175.908691 469.301880,174.978455 468.953918,174.048218 
	C468.953918,174.048233 469.004639,173.995834 469.423431,173.979782 
	C470.367584,173.927277 470.892944,173.890808 471.701447,174.049026 
	C473.763824,177.059097 476.126404,176.127197 477.840607,174.598175 
	C479.552765,173.070969 482.750488,171.482422 479.918640,167.936310 
	C479.240234,167.162460 478.548004,166.708313 477.645935,166.156891 
	C477.436066,166.059601 476.992737,165.927399 476.928833,165.591125 
	C475.238861,163.426208 473.900726,163.321732 472.790955,165.945267 
	C472.571533,165.991989 472.125824,166.043274 471.782532,166.031708 
	C470.982849,166.030167 470.526398,166.040192 470.069977,166.050217 
	C470.069977,166.050217 470.004974,165.996948 469.990601,165.628616 
	C469.972198,164.803741 469.968109,164.347183 469.964050,163.890640 
	C475.822449,160.562668 480.640472,161.767639 483.612915,167.873474 
	C483.738708,169.323639 484.001068,170.238678 484.263428,171.153717 
z"/>
<path fill="#454857" opacity="1.000000" stroke="none" 
	d="
M434.050079,162.853577 
	C437.141296,163.135361 440.232544,163.417130 443.440613,164.125031 
	C442.678040,165.102493 441.798615,165.653854 440.692902,166.110474 
	C440.466614,166.015747 439.989777,165.900375 439.915955,165.552017 
	C437.574463,165.148254 435.306793,165.092865 433.039093,165.037476 
	C433.039093,165.037460 433.008118,165.004608 433.120972,164.720642 
	C433.505920,163.908981 433.778015,163.381287 434.050079,162.853577 
z"/>
<path fill="#494C5B" opacity="1.000000" stroke="none" 
	d="
M440.919189,166.205200 
	C441.798615,165.653854 442.678040,165.102493 443.767517,164.307709 
	C444.711731,164.793060 445.445923,165.521866 446.243286,166.581223 
	C445.224243,167.103333 444.142029,167.294891 442.743835,167.701752 
	C441.924957,167.346436 441.422089,166.775818 440.919189,166.205200 
z"/>
<path fill="#494C5B" opacity="1.000000" stroke="none" 
	d="
M435.662292,178.425720 
	C436.528595,178.285522 437.582733,178.436752 438.886902,178.906525 
	C438.041321,179.055756 436.945709,178.886444 435.662292,178.425720 
z"/>
<path fill="#494C5B" opacity="1.000000" stroke="none" 
	d="
M469.649902,163.889633 
	C469.968109,164.347183 469.972198,164.803741 469.958801,165.601166 
	C469.438934,165.979980 468.936523,166.017899 468.055725,166.092590 
	C468.230133,165.382446 468.782959,164.635544 469.649902,163.889633 
z"/>
<path fill="#494C5B" opacity="1.000000" stroke="none" 
	d="
M484.524597,170.975220 
	C484.001068,170.238678 483.738708,169.323639 483.735046,168.205261 
	C484.257751,168.933502 484.521729,169.865112 484.524597,170.975220 
z"/>
<path fill="#494C5B" opacity="1.000000" stroke="none" 
	d="
M468.695984,174.036484 
	C469.301880,174.978455 469.649780,175.908691 470.127991,177.201691 
	C469.494843,176.615784 468.731415,175.667114 467.944794,174.371704 
	C468.093750,174.024872 468.265869,174.024811 468.695984,174.036484 
z"/>
<path fill="#494C5B" opacity="1.000000" stroke="none" 
	d="
M472.658600,178.425919 
	C473.525665,178.284714 474.580200,178.435562 475.885223,178.904739 
	C475.039185,179.054703 473.942596,178.886337 472.658600,178.425919 
z"/>
<path fill="#494C5B" opacity="1.000000" stroke="none" 
	d="
M441.321533,178.803162 
	C441.807312,178.243576 442.598389,177.644760 443.738464,177.079376 
	C443.267273,177.663177 442.447052,178.213562 441.321533,178.803162 
z"/>
<path fill="#494C5B" opacity="1.000000" stroke="none" 
	d="
M478.322449,178.779739 
	C478.811676,178.224762 479.604614,177.632126 480.746094,177.064087 
	C480.271759,177.639816 479.448944,178.190948 478.322449,178.779739 
z"/>
<path fill="#494C5B" opacity="1.000000" stroke="none" 
	d="
M431.579010,164.915451 
	C431.484985,165.794846 431.019867,166.707825 430.307556,167.799088 
	C430.442871,166.967926 430.825378,165.958481 431.579010,164.915451 
z"/>
<path fill="#494C5B" opacity="1.000000" stroke="none" 
	d="
M431.027832,176.290695 
	C431.654205,176.290161 432.295288,176.579697 433.112671,177.196655 
	C432.540161,177.209656 431.791382,176.895203 431.027832,176.290695 
z"/>
<path fill="#494C5B" opacity="1.000000" stroke="none" 
	d="
M481.354340,176.987305 
	C481.465729,176.442871 481.845062,175.781937 482.532471,175.068207 
	C482.434418,175.633865 482.028351,176.252335 481.354340,176.987305 
z"/>
<path fill="#494C5B" opacity="1.000000" stroke="none" 
	d="
M444.392303,176.996246 
	C444.510345,176.434952 444.907135,175.766296 445.624573,175.051514 
	C445.520477,175.633209 445.095764,176.261047 444.392303,176.996246 
z"/>
<path fill="#494C5B" opacity="1.000000" stroke="none" 
	d="
M433.700134,162.881134 
	C433.778015,163.381287 433.505920,163.908981 433.106201,164.703613 
	C432.794525,164.967422 432.610504,164.964294 432.150879,164.934265 
	C432.366882,164.241165 432.858521,163.574936 433.700134,162.881134 
z"/>
<path fill="#000000" opacity="1.000000" stroke="none" 
	d="
M472.125793,166.043274 
	C472.125824,166.043274 472.571533,165.991989 473.185974,166.012939 
	C474.864532,165.998383 475.928650,165.962891 476.992737,165.927399 
	C476.992737,165.927399 477.436066,166.059601 477.784576,166.413086 
	C478.723663,167.263046 479.314270,167.759521 479.904846,168.256012 
	C482.750488,171.482422 479.552765,173.070969 477.840607,174.598175 
	C476.126404,176.127197 473.763824,177.059097 471.602173,173.641113 
	C471.099731,171.363937 470.979736,169.689346 470.859741,168.014771 
	C470.890472,167.850098 470.921173,167.685425 471.241455,167.180283 
	C471.729309,166.574295 471.927551,166.308777 472.125793,166.043274 
z"/>
<path fill="#000000" opacity="1.000000" stroke="none" 
	d="
M440.692902,166.110474 
	C441.422089,166.775818 441.924957,167.346436 442.696747,168.026154 
	C445.414001,171.046036 443.085999,172.866608 441.136993,174.119705 
	C438.361847,175.903931 435.485046,175.618622 433.249146,171.980682 
	C433.382965,170.218506 433.636810,169.115265 433.890686,168.012024 
	C433.890686,168.012024 433.976868,167.530640 434.386200,167.130829 
	C436.526947,166.454132 438.258362,166.177246 439.989777,165.900375 
	C439.989777,165.900375 440.466614,166.015747 440.692902,166.110474 
z"/>
<path fill="#000000" opacity="1.000000" stroke="none" 
	d="
M459.163452,174.276321 
	C456.604889,176.214996 453.932770,176.922455 452.858490,173.777084 
	C452.129822,171.643677 453.101654,168.929489 453.312988,166.475037 
	C455.818848,167.129181 458.729340,167.194092 460.737457,168.573090 
	C463.889313,170.737457 460.798187,172.380478 459.163452,174.276321 
z"/>
<path fill="#494C5B" opacity="1.000000" stroke="none" 
	d="
M439.915955,165.552017 
	C438.258362,166.177246 436.526947,166.454132 434.456909,166.896759 
	C433.771515,166.590897 433.424713,166.119278 433.058502,165.342575 
	C435.306793,165.092865 437.574463,165.148254 439.915955,165.552017 
z"/>
<path fill="#494C5B" opacity="1.000000" stroke="none" 
	d="
M470.500305,168.103378 
	C470.979736,169.689346 471.099731,171.363937 471.319031,173.446426 
	C470.892944,173.890808 470.367584,173.927277 469.449005,173.953766 
	C469.417480,172.026535 469.779144,170.109268 470.500305,168.103378 
z"/>
<path fill="#494C5B" opacity="1.000000" stroke="none" 
	d="
M433.559540,168.074814 
	C433.636810,169.115265 433.382965,170.218506 433.071136,171.663864 
	C433.084930,170.716507 433.156677,169.427063 433.559540,168.074814 
z"/>
<path fill="#494C5B" opacity="1.000000" stroke="none" 
	d="
M471.782532,166.031708 
	C471.927551,166.308777 471.729309,166.574295 471.298950,166.935669 
	C470.749725,166.927689 470.487305,166.745178 470.174805,166.267120 
	C470.526398,166.040192 470.982849,166.030167 471.782532,166.031708 
z"/>
<path fill="#494C5B" opacity="1.000000" stroke="none" 
	d="
M476.928833,165.591125 
	C475.928650,165.962891 474.864532,165.998383 473.405396,165.966217 
	C473.900726,163.321732 475.238861,163.426208 476.928833,165.591125 
z"/>
<path fill="#494C5B" opacity="1.000000" stroke="none" 
	d="
M479.918640,167.936310 
	C479.314270,167.759521 478.723663,167.263046 477.994446,166.510361 
	C478.548004,166.708313 479.240234,167.162460 479.918640,167.936310 
z"/>
</svg>